<svg width="52" height="124" viewBox="0 0 52 124" fill="none" xmlns="http://www.w3.org/2000/svg">
<path d="M0.666769 108.932C0.0772016 110.773 1.0916 112.744 2.93249 113.333L32.9316 122.941C34.7725 123.53 36.7427 122.516 37.3323 120.675C37.9219 118.834 36.9075 116.864 35.0666 116.274L8.40074 107.734L16.9408 81.0684C17.5303 79.2275 16.5159 77.2573 14.6751 76.6677C12.8342 76.0781 10.8639 77.0925 10.2743 78.9334L0.666769 108.932ZM17.7906 5.71447C38.6267 22.6741 46.4163 41.775 43.6065 59.3216C40.7785 76.9822 27.0412 94.2005 2.39789 106.888L5.60211 113.112C31.4588 99.7995 47.2215 81.0178 50.5185 60.4284C53.8337 39.725 44.3733 18.3259 22.2094 0.285533L17.7906 5.71447Z" fill="#3A3636"/>
</svg>
