<svg width="923" height="817" viewBox="0 0 923 817" fill="none" xmlns="http://www.w3.org/2000/svg">
<path d="M179.158 164C156.519 143.952 124.825 84.6843 179.158 8" stroke="#F5F5F5" stroke-width="25"/>
<path d="M389.158 246C411.042 266.048 441.68 325.316 389.158 402" stroke="#F5F5F5" stroke-width="25"/>
<path d="M880.158 594C902.797 614.048 934.491 673.316 880.158 750" stroke="#F5F5F5" stroke-width="25"/>
<path d="M652.158 559C629.519 538.952 597.825 479.684 652.158 403" stroke="#F5F5F5" stroke-width="25"/>
<path d="M299.158 593C277.274 572.952 246.636 513.684 299.158 437" stroke="#F5F5F5" stroke-width="25"/>
<path d="M847.103 220.083C873.691 233.727 918.994 282.986 887.504 370.863" stroke="#F5F5F5" stroke-width="25"/>
<path d="M596.75 172.647C580.547 147.536 565.942 82.2256 637.152 21.8662" stroke="#F5F5F5" stroke-width="25"/>
<path d="M90.2108 795.79C74.0071 770.68 59.4022 705.369 130.612 645.01" stroke="#F5F5F5" stroke-width="25"/>
<path d="M503.709 713.137C512.861 741.586 510.065 808.451 425.659 848.323" stroke="#F5F5F5" stroke-width="25"/>
<path d="M49.4015 304.657C65.6052 329.767 80.2101 395.078 8.99997 455.437" stroke="#F5F5F5" stroke-width="25"/>
</svg>
